<svg xmlns="http://www.w3.org/2000/svg" width="900" height="1200" viewBox="0 0 900 1200" role="img" aria-labelledby="title desc">
  <title id="title">Low-tech communication device board thumbnail</title>
  <desc id="desc">Decorative thumbnail preview for the low-tech communication device board PDF.</desc>
  <defs>
    <linearGradient id="bg" x1="0" x2="1" y1="0" y2="1">
      <stop offset="0%" stop-color="#fef7fb"/>
      <stop offset="100%" stop-color="#eef6f8"/>
    </linearGradient>
  </defs>
  <rect width="900" height="1200" rx="40" fill="url(#bg)"/>
  <rect x="72" y="72" width="756" height="1056" rx="28" fill="#ffffff" stroke="#dde6ea" stroke-width="8"/>
  <rect x="120" y="140" width="660" height="120" rx="24" fill="#fbe9f1"/>
  <text x="450" y="210" text-anchor="middle" font-family="'DM Sans', Arial, sans-serif" font-size="54" font-weight="700" fill="#253036">Low-tech Communication</text>
  <text x="450" y="275" text-anchor="middle" font-family="'DM Sans', Arial, sans-serif" font-size="46" font-weight="700" fill="#253036">Device Board</text>
  <g fill="#fff7ef" stroke="#f2b485" stroke-width="6">
    <rect x="145" y="345" width="180" height="130" rx="24"/>
    <rect x="360" y="345" width="180" height="130" rx="24"/>
    <rect x="575" y="345" width="180" height="130" rx="24"/>
    <rect x="145" y="510" width="180" height="130" rx="24"/>
    <rect x="360" y="510" width="180" height="130" rx="24"/>
    <rect x="575" y="510" width="180" height="130" rx="24"/>
    <rect x="145" y="675" width="180" height="130" rx="24"/>
    <rect x="360" y="675" width="180" height="130" rx="24"/>
    <rect x="575" y="675" width="180" height="130" rx="24"/>
  </g>
  <g font-family="'DM Sans', Arial, sans-serif" font-size="34" font-weight="600" fill="#6c7a83" text-anchor="middle">
    <text x="235" y="420">Yes</text>
    <text x="450" y="420">No</text>
    <text x="665" y="420">Help</text>
    <text x="235" y="585">Pain</text>
    <text x="450" y="585">Drink</text>
    <text x="665" y="585">Bathroom</text>
    <text x="235" y="750">Family</text>
    <text x="450" y="750">Tired</text>
    <text x="665" y="750">Thank you</text>
  </g>
  <text x="450" y="980" text-anchor="middle" font-family="'Playfair Display', Georgia, serif" font-size="48" fill="#d88fa8">Printable support board</text>
  <text x="450" y="1040" text-anchor="middle" font-family="'DM Sans', Arial, sans-serif" font-size="30" fill="#6c7a83">Downloadable PDF resource</text>
</svg>